<svg xmlns="https://urldefense.com/v3/__http://www.w3.org/2000/svg__;!!Jqkx6D6v!v3sGU30n6ozx2tYT3Ops6N-RtI1_INhsVmhuUpcuUc_39H3PZH7a-f-x_1oxh16cm6kSM7nQ$ " viewBox="0 0 209.35 183.93"><defs><style>.cls-1{fill:#0e4da1;}.cls-2{fill:#2a2624;}.cls-3{fill:#2a2724;}.cls-4{fill:#2b2826;}.cls-5{fill:#e5e5e4;}.cls-6{fill:#2b2724;}.cls-7{fill:#e5e6e8;}.cls-8{fill:#e4e3e3;}</style></defs><title>EricssonAsset 1</title><g id="Layer_2" data-name="Layer 2"><g id="Layer_1-2" data-name="Layer 1"><path class="cls-1" d="M138,0A11.78,11.78,0,0,1,149.7,8.26a12,12,0,0,1-4.51,13.57,29.79,29.79,0,0,1-7.84,3.44Q108,35.11,78.56,44.87a44.42,44.42,0,0,1-4.68,1.3,11.88,11.88,0,0,1-14.1-7.63,11.66,11.66,0,0,1,6-14.86c5.7-2.82,11.93-4.31,17.94-6.35Q107,9.41,130.43,1.68C133,.82,135.61-.21,138,0Z"/><path class="cls-1" d="M119.32,43.62l5.24-1.68a8.66,8.66,0,0,1,3.83-1.36l2.89-.89c1.1-2.12,3.22-.64,4.72-1.33,9.66,0,15.23,5.6,14.09,14.06-.72,5.37-4.26,8.27-9,9.92-9.17,3.17-18.37,6.24-27.57,9.32-11.91,4-23.85,7.91-35.75,11.91-3.37,1.13-6.81,1.93-10.26.85a11.25,11.25,0,0,1-8.17-9.33c-.84-5,.6-9.13,4.89-12.07A27.12,27.12,0,0,1,71,60q22.27-7.49,44.53-15C116.65,44.07,117.76,43.2,119.32,43.62Z"/><path class="cls-1" d="M150.24,89c0,5.83-3.12,9.85-9.8,12.16-7.88,2.72-15.83,5.26-23.74,7.9-12.63,4.21-25.25,8.45-37.9,12.62a35.14,35.14,0,0,1-6.51,1.59,11.6,11.6,0,0,1-12.58-7.87,11.87,11.87,0,0,1,4.82-14.09c3.08-2,6.62-2.84,10-4q28.16-9.41,56.32-18.79a33.85,33.85,0,0,1,5.42-1.36A11.73,11.73,0,0,1,150.24,89Z"/><path class="cls-2" d="M201.79,169.71c0-4.68.22-9.37-.07-14-.2-3.23,1.78-2.73,3.55-2.56s4.16-1.3,4.08,2.39c-.17,8.36-.11,16.72,0,25.08,0,2-.6,2.28-2.48,2.58-5.49.85-8.75-1.08-10.75-6.33a49.08,49.08,0,0,0-6.8-11.56c0,5-.19,10.09.07,15.12.18,3.49-2.07,2.67-3.89,2.64s-4,.94-3.94-2.59c.22-8.23.14-16.47,0-24.71,0-2.14.73-2.49,2.75-2.76,5.66-.74,9.34.91,11.24,6.67,1.19,3.59,3.39,6.85,5.14,10.26Z"/><path class="cls-3" d="M148.53,162.78c3.82-8.36,9.61-11.72,17.63-10.2,8.91,1.68,13.54,9.71,11.46,19.85-1.71,8.29-9.3,12.91-18.27,11.12L156.8,183C148.26,180.31,144.12,170.2,148.53,162.78Z"/><path class="cls-2" d="M52.48,157.7c1,3.84.72,7.32-2.89,9.83-.62.43-1.22,1.14-.51,1.85,2.56,2.56,2.26,6.35,4.07,9.21a1.51,1.51,0,0,1,.67,1.52c.72,2.26.13,2.87-2.44,3.11-4.41.4-6.5-1.07-7.42-5.42-.51-2.41-.68-5.76-4.52-6-1.65-.11-3-.1-2.7,2.24a29.13,29.13,0,0,1,0,3.74c0,5.35-1.52,6.48-6.81,5.32-1.16-.25-1.34-.81-1.34-1.78q0-13.31,0-26.6c0-1.05.37-1.67,1.5-1.62,5.59.23,11.24-.65,16.78.56a19.85,19.85,0,0,1,4,1.86C52.36,155.62,52,157,52.48,157.7Z"/><path class="cls-2" d="M23.28,177.12c-.14,6-.14,6-6.17,6-4.87,0-9.73-.09-14.6,0-2,.05-2.53-.56-2.51-2.52q.17-12.54,0-25.08c0-2,.64-2.52,2.57-2.49,6,.12,12,.16,18,0,2.48-.07,2.6,1.22,2.48,3s.59,3.68-2.36,3.56c-3.24-.14-6.49.07-9.73-.07-2.06-.08-2.81.52-2.78,2.69s.78,2.57,2.65,2.48c2.49-.12,5,.24,7.48-.07,3.62-.45,4.64,1.12,4.16,4.38a9.82,9.82,0,0,0,.07,1.87c-3.06,1.15-6.24.24-9.35.54-1.55.15-3.17-.41-4.67.39a7.41,7.41,0,0,0,.07,4.47c3.55.9,7.17.12,10.74.41C20.62,176.78,22,176.23,23.28,177.12Z"/><path class="cls-2" d="M124.51,157.53l.19-.14,0-.23A10.43,10.43,0,0,1,135,151.53a33.37,33.37,0,0,0,5.57.2c1.62-.13,3.61.18,4.12,1.91a7.48,7.48,0,0,1-.41,5.78c-1,1.7-2.93.93-4.46.5s-2.91-.78-4.38-.16c-.66.27-1.5.47-1.52,1.43s.72,1.29,1.4,1.54c2,.73,4,1.28,6,2.19,5.86,2.81,7.36,9.23,3.37,14.33-4.47,5.14-10.37,4.84-16.33,4.27-1.22-.12-2.42-.37-3.63-.55-2.91-1.7-1.48-4.21-.88-6.27.69-2.41,2.81-1.35,4.43-1.07a21.86,21.86,0,0,0,4.39.72c1.13,0,2.41-.15,2.66-1.51s-.92-1.64-1.8-2.06c-1.69-.79-3.53-1.19-5.19-2.06C122.74,167.79,121.05,162,124.51,157.53Z"/><path class="cls-3" d="M81.77,152.91a24.87,24.87,0,0,1,11.82.32c2.19.58,3.41,5,1.89,6.63-.74.81-1.41.06-2-.17a14.13,14.13,0,0,0-5.47-1c-5.45,0-8.93,3.34-9.25,8.67-.33,5.58,2.74,9.2,8.34,9.93,1.77.24,3.47-.19,5.19-.21,1.21,0,3.25-2.43,3.55.67.2,2.09,1.62,5-2.62,5.57a38.68,38.68,0,0,1-12.2-.22l-1.5-.59c-5.12-.22-7.84-3.7-9.24-7.85-2.13-6.29-1.74-12.65,2.84-17.93C75.28,154.27,77.93,152,81.77,152.91Z"/><path class="cls-4" d="M57.91,156.51c-.29-2.45.31-3.93,3.27-3.47a47.26,47.26,0,0,0,5.47.27c1.3.88,1.48,2.28,1.51,3.64q.24,11.4,0,22.78a5,5,0,0,1-1,3.15c-2.48,1.23-5.1.38-7.64.45-1.86,0-1.22-1.78-1.62-2.82l.16-.22-.15-.21c.66-4-.45-8.06,0-12.09l.1-.19-.16-.13A56.24,56.24,0,0,0,57.91,156.51Z"/><path class="cls-5" d="M136,38.36l-4.72,1.33c-1-.93-1.49-1.76.42-2.11C133.24,37.3,134.56,38.17,136,38.36Z"/><path class="cls-5" d="M119.32,43.62A8,8,0,0,1,115.54,45C116.31,42.74,118,42.15,119.32,43.62Z"/><path class="cls-5" d="M128.39,40.58a8.12,8.12,0,0,1-3.83,1.36C125.5,40.55,126.66,39.74,128.39,40.58Z"/><path class="cls-6" d="M120.09,155.28c0,3.52-1.3,5.21-5,3.42a3.42,3.42,0,0,0-1.46-.27c-2.23,0-5.1-.37-5.71,2.25-.73,3.11,2.44,3.14,4.43,3.76,7,2.19,9.35,4.76,9.11,10a10.14,10.14,0,0,1-4.44,7.8,25.73,25.73,0,0,1-15.38.81c-3.78-.86-1.58-3.67-1.61-5.47-.05-2.57,1.85-1,3-.78,2.19.42,4.34,1.28,6.62.79,1.48-.31,3-.76,3.3-2.57s-1.24-2.57-2.63-3.12c-1.74-.69-3.57-1.13-5.29-1.85-3.63-1.53-5.91-4.11-5.87-8.27,0-3.93,2.28-6.9,6.34-8.35a21.49,21.49,0,0,1,12.53-.33C119.21,153.37,120.05,153.93,120.09,155.28Z"/><path class="cls-7" d="M169.53,168.49c-.12.71-.23,1.57-.41,2.42-1,4.74-3.26,7.12-6.5,6.87-3-.23-5.42-3.32-5.84-7.64a14.59,14.59,0,0,1,1-7.67c1-2.15,2.49-3.74,5.07-3.8s4.15,1.39,5.23,3.54A16.25,16.25,0,0,1,169.53,168.49Z"/><path class="cls-8" d="M39,165.78c-3,.67-2.17-1.76-2.37-3.64-.27-2.45.64-3.27,3.06-3.06s4.79.25,4.81,3.28C44.5,165.64,41.87,165.72,39,165.78Z"/></g></g></svg>